<svg xmlns:dc="http://purl.org/dc/elements/1.1/" xmlns:cc="http://creativecommons.org/ns#" xmlns:rdf="http://www.w3.org/1999/02/22-rdf-syntax-ns#" xmlns:svg="http://www.w3.org/2000/svg" xmlns="http://www.w3.org/2000/svg" xmlns:sodipodi="http://sodipodi.sourceforge.net/DTD/sodipodi-0.dtd" xmlns:inkscape="http://www.inkscape.org/namespaces/inkscape" viewBox="0 0 32 40" version="1.1" x="0px" y="0px"><g transform="translate(0,-1020.3622)"><path style="color:#000000;font-style:normal;font-variant:normal;font-weight:normal;font-stretch:normal;font-size:medium;line-height:normal;font-family:sans-serif;text-indent:0;text-align:start;text-decoration:none;text-decoration-line:none;text-decoration-style:solid;text-decoration-color:#000000;letter-spacing:normal;word-spacing:normal;text-transform:none;direction:ltr;block-progression:tb;writing-mode:lr-tb;baseline-shift:baseline;text-anchor:start;white-space:normal;clip-rule:nonzero;display:inline;overflow:visible;visibility:visible;opacity:1;isolation:auto;mix-blend-mode:normal;color-interpolation:sRGB;color-interpolation-filters:linearRGB;solid-color:#000000;solid-opacity:1;fill:#000000;fill-opacity:1;fill-rule:evenodd;stroke:none;stroke-width:0.99999988px;stroke-linecap:butt;stroke-linejoin:miter;stroke-miterlimit:4;stroke-dasharray:none;stroke-dashoffset:0;stroke-opacity:1;color-rendering:auto;image-rendering:auto;shape-rendering:auto;text-rendering:auto;enable-background:accumulate" d="m 25.013672,1032.7422 c -0.865699,-0.2325 -1.768374,0.2901 -2,1.1562 l -0.707031,2.6446 -1.855469,1.875 c -0.651109,0.6583 -1.070556,1.5118 -1.197266,2.4297 l -0.380859,2.748 0.992187,0.1367 0.378907,-2.748 c 0.0972,-0.7041 0.418903,-1.3587 0.917968,-1.8633 l 2.042969,-2.0645 0.775391,-2.9004 c 0.09226,-0.3449 0.430637,-0.5393 0.773437,-0.4472 l 0.002,0 0.222657,0.059 c 0.342795,0.092 0.539487,0.4343 0.447265,0.7793 l -1.128906,4.2207 0.966797,0.2597 1.128906,-4.2226 c 0.23153,-0.8661 -0.288611,-1.7695 -1.154297,-2.002 l -0.224609,-0.061 z"/><path style="color:#000000;font-style:normal;font-variant:normal;font-weight:normal;font-stretch:normal;font-size:medium;line-height:normal;font-family:sans-serif;text-indent:0;text-align:start;text-decoration:none;text-decoration-line:none;text-decoration-style:solid;text-decoration-color:#000000;letter-spacing:normal;word-spacing:normal;text-transform:none;direction:ltr;block-progression:tb;writing-mode:lr-tb;baseline-shift:baseline;text-anchor:start;white-space:normal;clip-rule:nonzero;display:inline;overflow:visible;visibility:visible;opacity:1;isolation:auto;mix-blend-mode:normal;color-interpolation:sRGB;color-interpolation-filters:linearRGB;solid-color:#000000;solid-opacity:1;fill:#000000;fill-opacity:1;fill-rule:evenodd;stroke:none;stroke-width:0.99999988px;stroke-linecap:round;stroke-linejoin:round;stroke-miterlimit:4;stroke-dasharray:none;stroke-dashoffset:0;stroke-opacity:1;color-rendering:auto;image-rendering:auto;shape-rendering:auto;text-rendering:auto;enable-background:accumulate" d="m 26.105469,1027.3848 a 0.50004994,0.50004994 0 0 0 -0.0957,0.012 l 0.0957,-0.012 z m -0.0957,0.012 a 0.50004994,0.50004994 0 0 0 -0.0039,0 c -0.828719,0.1685 -1.396255,0.953 -1.296875,1.793 a 0.50004994,0.50004994 0 0 0 0,0 l 0.513672,4.3164 a 0.50062489,0.50062489 0 0 0 0.994141,-0.1191 l -0.513672,-4.3164 c -0.03943,-0.3333 0.175328,-0.6309 0.501953,-0.6973 a 0.50004994,0.50004994 0 0 0 0.0059,0 c 0.359605,-0.074 0.694414,0.1583 0.751953,0.5234 l 0.951171,6.0508 c 0.240095,1.5248 -0.02515,3.0855 -0.753906,4.4453 l -2.923828,5.4571 a 0.50004994,0.50004994 0 1 0 0.88086,0.4726 l 2.925781,-5.457 c 0.831668,-1.5518 1.133358,-3.3342 0.859375,-5.0742 l -0.953125,-6.0508 c -0.143937,-0.9135 -1.033697,-1.5315 -1.939453,-1.3457 z"/><path style="color:#000000;font-style:normal;font-variant:normal;font-weight:normal;font-stretch:normal;font-size:medium;line-height:normal;font-family:sans-serif;text-indent:0;text-align:start;text-decoration:none;text-decoration-line:none;text-decoration-style:solid;text-decoration-color:#000000;letter-spacing:normal;word-spacing:normal;text-transform:none;direction:ltr;block-progression:tb;writing-mode:lr-tb;baseline-shift:baseline;text-anchor:start;white-space:normal;clip-rule:nonzero;display:inline;overflow:visible;visibility:visible;opacity:1;isolation:auto;mix-blend-mode:normal;color-interpolation:sRGB;color-interpolation-filters:linearRGB;solid-color:#000000;solid-opacity:1;fill:#000000;fill-opacity:1;fill-rule:nonzero;stroke:none;stroke-width:0.99999988;stroke-linecap:round;stroke-linejoin:round;stroke-miterlimit:4;stroke-dasharray:none;stroke-dashoffset:0;stroke-opacity:1;color-rendering:auto;image-rendering:auto;shape-rendering:auto;text-rendering:auto;enable-background:accumulate" d="m 18.384766,1042.9043 a 0.50004994,0.50004994 0 0 0 -0.462891,0.3711 l -0.90625,3.3848 a 0.50004994,0.50004994 0 0 0 0.353516,0.6113 l 7.720703,2.0723 a 0.50004994,0.50004994 0 0 0 0.611328,-0.3536 l 0.90625,-3.3847 a 0.50004994,0.50004994 0 0 0 -0.353516,-0.6114 l -7.720703,-2.0722 a 0.50004994,0.50004994 0 0 0 -0.148437,-0.018 z m 0.373046,1.1113 6.753907,1.8145 -0.646485,2.4179 -6.753906,-1.8125 0.646484,-2.4199 z"/><path style="color:#000000;font-style:normal;font-variant:normal;font-weight:normal;font-stretch:normal;font-size:medium;line-height:normal;font-family:sans-serif;text-indent:0;text-align:start;text-decoration:none;text-decoration-line:none;text-decoration-style:solid;text-decoration-color:#000000;letter-spacing:normal;word-spacing:normal;text-transform:none;direction:ltr;block-progression:tb;writing-mode:lr-tb;baseline-shift:baseline;text-anchor:start;white-space:normal;clip-rule:nonzero;display:inline;overflow:visible;visibility:visible;opacity:1;isolation:auto;mix-blend-mode:normal;color-interpolation:sRGB;color-interpolation-filters:linearRGB;solid-color:#000000;solid-opacity:1;fill:#000000;fill-opacity:1;fill-rule:evenodd;stroke:none;stroke-width:0.99999988px;stroke-linecap:butt;stroke-linejoin:miter;stroke-miterlimit:4;stroke-dasharray:none;stroke-dashoffset:0;stroke-opacity:1;color-rendering:auto;image-rendering:auto;shape-rendering:auto;text-rendering:auto;enable-background:accumulate" d="m 6.9863281,1032.7422 -0.2246093,0.061 c -0.8656859,0.2325 -1.3858269,1.1359 -1.1542969,2.002 l 1.1289062,4.2226 0.9667969,-0.2597 -1.1289062,-4.2207 c -0.092222,-0.345 0.1044707,-0.6873 0.4472656,-0.7793 l 0.2226562,-0.059 0.00195,0 c 0.3428005,-0.092 0.6811774,0.1023 0.7734374,0.4472 l 0.7753907,2.9004 2.0429691,2.0645 c 0.499065,0.5046 0.820768,1.1592 0.917968,1.8633 l 0.378907,2.748 0.992187,-0.1367 -0.380859,-2.748 c -0.12671,-0.9179 -0.546157,-1.7714 -1.197266,-2.4297 l -1.8554686,-1.875 -0.7070313,-2.6446 c -0.2316262,-0.8661 -1.1343011,-1.3887 -2,-1.1562 z"/><path style="color:#000000;font-style:normal;font-variant:normal;font-weight:normal;font-stretch:normal;font-size:medium;line-height:normal;font-family:sans-serif;text-indent:0;text-align:start;text-decoration:none;text-decoration-line:none;text-decoration-style:solid;text-decoration-color:#000000;letter-spacing:normal;word-spacing:normal;text-transform:none;direction:ltr;block-progression:tb;writing-mode:lr-tb;baseline-shift:baseline;text-anchor:start;white-space:normal;clip-rule:nonzero;display:inline;overflow:visible;visibility:visible;opacity:1;isolation:auto;mix-blend-mode:normal;color-interpolation:sRGB;color-interpolation-filters:linearRGB;solid-color:#000000;solid-opacity:1;fill:#000000;fill-opacity:1;fill-rule:evenodd;stroke:none;stroke-width:0.99999988px;stroke-linecap:round;stroke-linejoin:round;stroke-miterlimit:4;stroke-dasharray:none;stroke-dashoffset:0;stroke-opacity:1;color-rendering:auto;image-rendering:auto;shape-rendering:auto;text-rendering:auto;enable-background:accumulate" d="m 5.8945312,1027.3848 0.095703,0.012 a 0.50004994,0.50004994 0 0 0 -0.095703,-0.012 z m 0.095703,0.012 c -0.9057563,-0.1858 -1.7955165,0.4322 -1.9394532,1.3457 l -0.953125,6.0508 c -0.2739822,1.74 0.027708,3.5224 0.859375,5.0742 l 2.9257813,5.457 a 0.50004994,0.50004994 0 1 0 0.8808594,-0.4726 l -2.9238281,-5.4571 c -0.7287571,-1.3598 -0.9940007,-2.9205 -0.7539063,-4.4453 l 0.9511719,-6.0508 c 0.057539,-0.3651 0.3923484,-0.5972 0.7519531,-0.5234 a 0.50004994,0.50004994 0 0 0 0.00586,0 0.50004994,0.50004994 0 0 0 0,0 c 0.3256116,0.067 0.5413102,0.3626 0.5019531,0.6953 l -0.5136719,4.3164 a 0.50062475,0.50062475 0 0 0 0.9941407,0.1191 l 0.5136718,-4.3164 a 0.50004994,0.50004994 0 0 0 0,-0 c 0.09938,-0.84 -0.4681559,-1.6245 -1.296875,-1.793 a 0.50004994,0.50004994 0 0 0 -0.00391,0 z"/><path style="color:#000000;font-style:normal;font-variant:normal;font-weight:normal;font-stretch:normal;font-size:medium;line-height:normal;font-family:sans-serif;text-indent:0;text-align:start;text-decoration:none;text-decoration-line:none;text-decoration-style:solid;text-decoration-color:#000000;letter-spacing:normal;word-spacing:normal;text-transform:none;direction:ltr;block-progression:tb;writing-mode:lr-tb;baseline-shift:baseline;text-anchor:start;white-space:normal;clip-rule:nonzero;display:inline;overflow:visible;visibility:visible;opacity:1;isolation:auto;mix-blend-mode:normal;color-interpolation:sRGB;color-interpolation-filters:linearRGB;solid-color:#000000;solid-opacity:1;fill:#000000;fill-opacity:1;fill-rule:nonzero;stroke:none;stroke-width:0.99999988;stroke-linecap:round;stroke-linejoin:round;stroke-miterlimit:4;stroke-dasharray:none;stroke-dashoffset:0;stroke-opacity:1;color-rendering:auto;image-rendering:auto;shape-rendering:auto;text-rendering:auto;enable-background:accumulate" d="m 13.599609,1042.9043 a 0.50004994,0.50004994 0 0 0 -0.132812,0.018 l -7.7207032,2.0722 a 0.50004994,0.50004994 0 0 0 -0.3535157,0.6114 l 0.90625,3.3847 a 0.50004994,0.50004994 0 0 0 0.6113281,0.3536 l 7.7207028,-2.0723 a 0.50004994,0.50004994 0 0 0 0.353516,-0.6113 l -0.90625,-3.3848 a 0.50004994,0.50004994 0 0 0 -0.478516,-0.3711 z m -0.357421,1.1113 0.646484,2.4199 -6.7539064,1.8125 -0.6464844,-2.4179 6.7539068,-1.8145 z"/><path style="color:#000000;font-style:normal;font-variant:normal;font-weight:normal;font-stretch:normal;font-size:medium;line-height:normal;font-family:sans-serif;text-indent:0;text-align:start;text-decoration:none;text-decoration-line:none;text-decoration-style:solid;text-decoration-color:#000000;letter-spacing:normal;word-spacing:normal;text-transform:none;direction:ltr;block-progression:tb;writing-mode:lr-tb;baseline-shift:baseline;text-anchor:start;white-space:normal;clip-rule:nonzero;display:inline;overflow:visible;visibility:visible;opacity:1;isolation:auto;mix-blend-mode:normal;color-interpolation:sRGB;color-interpolation-filters:linearRGB;solid-color:#000000;solid-opacity:1;fill:#000000;fill-opacity:1;fill-rule:nonzero;stroke:none;stroke-width:1.00157475;stroke-linecap:round;stroke-linejoin:round;stroke-miterlimit:4;stroke-dasharray:none;stroke-dashoffset:0;stroke-opacity:1;color-rendering:auto;image-rendering:auto;shape-rendering:auto;text-rendering:auto;enable-background:accumulate" d="m 13.25,1023.3613 c -1.786982,0 -3.25,1.4496 -3.25,3.2285 0.001,0.9495 0.47946,1.7492 1.060547,2.379 1.526979,1.6546 4.558594,5.2167 4.558594,5.2167 a 0.50083746,0.50083746 0 0 0 0.755859,0.01 c 0,0 3.240001,-3.654 4.802734,-5.4629 0.510311,-0.5906 0.821032,-1.3424 0.822266,-2.1407 0,-1.7789 -1.463018,-3.2285 -3.25,-3.2285 -1.157771,0 -2.172845,0.5762 -2.75,1.4649 -0.577156,-0.8887 -1.592229,-1.4649 -2.75,-1.4649 z m 0,1.002 c 1.300188,0 2.25,0.7649 2.25,1.998 a 0.50083746,0.50083746 0 0 0 1,0 c 0,-1.2331 0.949812,-1.998 2.25,-1.998 1.25015,0 2.248047,0.9934 2.248047,2.2265 -8.34e-4,0.54 -0.21039,1.0608 -0.578125,1.4864 -1.429578,1.6548 -3.979418,4.5284 -4.419922,5.0254 -0.431575,-0.5067 -2.768523,-3.258 -4.203125,-4.8125 -0.481325,-0.5217 -0.794261,-1.0881 -0.794922,-1.6993 0,-1.2331 0.997897,-2.2265 2.248047,-2.2265 z"/></g><text x="0" y="47" fill="#000000" font-size="5px" font-weight="bold" font-family="'Helvetica Neue', Helvetica, Arial-Unicode, Arial, Sans-serif">Created by anbileru adaleru</text><text x="0" y="52" fill="#000000" font-size="5px" font-weight="bold" font-family="'Helvetica Neue', Helvetica, Arial-Unicode, Arial, Sans-serif">from the Noun Project</text></svg>