<svg xmlns="http://www.w3.org/2000/svg" xmlns:xlink="http://www.w3.org/1999/xlink" version="1.1" x="0px" y="0px" viewBox="0 0 100 125" enable-background="new 0 0 100 100" xml:space="preserve"><g><path d="M94.368,45.22L51.006,11.495c-0.592-0.462-1.418-0.462-2.012,0L5.632,45.22c-0.713,0.557-0.842,1.584-0.287,2.299   c0.557,0.714,1.585,0.842,2.299,0.287l8.47-6.587v45.994c0,0.902,0.732,1.638,1.636,1.638H38.44h23.12h20.69   c0.905,0,1.637-0.735,1.637-1.638V41.219l8.471,6.587c0.713,0.555,1.742,0.427,2.297-0.287   C95.212,46.804,95.081,45.776,94.368,45.22z M58.286,85.574H41.714V67.365c0-4.57,3.718-8.285,8.286-8.285   c4.569,0,8.286,3.715,8.286,8.285V85.574z M80.613,85.574H61.561V67.365c0-6.374-5.187-11.561-11.561-11.561   s-11.56,5.187-11.56,11.561v18.209H19.387V38.672L50,14.861L80.613,38.67V85.574z"/><path d="M43.401,37.596c0,3.639,2.96,6.598,6.599,6.598c3.64,0,6.6-2.959,6.6-6.598c0-3.64-2.96-6.6-6.6-6.6   C46.361,30.996,43.401,33.956,43.401,37.596z M53.324,37.596c0,1.831-1.491,3.324-3.324,3.324c-1.832,0-3.324-1.493-3.324-3.324   c0-1.833,1.492-3.326,3.324-3.326C51.833,34.27,53.324,35.763,53.324,37.596z"/></g><text x="0" y="115" fill="#000000" font-size="5px" font-weight="bold" font-family="'Helvetica Neue', Helvetica, Arial-Unicode, Arial, Sans-serif">Created by Tran</text><text x="0" y="120" fill="#000000" font-size="5px" font-weight="bold" font-family="'Helvetica Neue', Helvetica, Arial-Unicode, Arial, Sans-serif">from the Noun Project</text></svg>