<svg xmlns="http://www.w3.org/2000/svg" xmlns:xlink="http://www.w3.org/1999/xlink" version="1.1" x="0px" y="0px" viewBox="0 0 100 125" enable-background="new 0 0 100 100" xml:space="preserve"><g><path d="M39.723,22.424c-5.852,0-11.167,1.117-15.068,2.986c-3.789,1.814-6.361,4.41-6.503,7.48c0,0.028-0.028,0.028-0.028,0.056   v0.028c-0.028,0.056-0.028,0.14-0.028,0.223v8.624v0.141v9.182v0.111v8.457c0,3.184,2.629,5.861,6.531,7.76   c3.93,1.871,9.245,2.986,15.097,2.986c2.206,0,4.326-0.168,6.333-0.475c3.677,4.633,9.358,7.592,15.72,7.592   c11.111,0,20.13-9.043,20.13-20.15c0-11.137-9.019-20.181-20.13-20.181h-0.48v-4.047c0-0.083,0-0.167,0-0.223   c0-0.028,0-0.028,0-0.056c-0.028,0-0.028-0.028-0.028-0.056c-0.169-3.042-2.742-5.638-6.53-7.453   C50.834,23.541,45.547,22.424,39.723,22.424L39.723,22.424z M39.723,24.015c5.627,0,10.716,1.117,14.335,2.847   c3.534,1.703,5.569,3.936,5.654,6.196v0.083c0,0.028,0,0.028,0,0.056c0,1.619-1.018,3.266-2.912,4.689c0,0.028-0.028,0-0.028,0   c-2.432,0.642-4.693,1.702-6.672,3.098c-3.025,0.865-6.56,1.396-10.377,1.396c-5.654,0-10.771-1.088-14.391-2.847   c-3.393-1.618-5.399-3.74-5.654-5.889v-0.447c0-0.083,0-0.139,0-0.195c0.085-2.233,2.121-4.438,5.654-6.14   C28.951,25.132,34.068,24.015,39.723,24.015L39.723,24.015z M59.712,37.273v0.084h-0.085   C59.655,37.329,59.684,37.301,59.712,37.273L59.712,37.273z M19.678,37.301c1.159,1.423,2.884,2.679,4.977,3.684   c3.901,1.87,9.217,2.987,15.068,2.987c2.715,0,5.315-0.225,7.719-0.698c-2.12,2.177-3.76,4.8-4.75,7.732   c-0.961,0.084-1.979,0.139-2.996,0.139c-5.655,0-10.744-1.088-14.363-2.846c-3.618-1.73-5.654-4.02-5.654-6.336v-0.084V37.301   L19.678,37.301z M61.775,38.835c10.264,0,18.547,8.318,18.547,18.59c0,10.27-8.283,18.588-18.547,18.588   c-10.234,0-18.519-8.318-18.519-18.588C43.257,47.154,51.541,38.835,61.775,38.835L61.775,38.835z M61.747,42.966   c-0.197,0-0.396,0-0.621,0.028c-3.337,0.308-6.306,3.433-6.022,8.066c0.057,0.895,0.085,1.703,0.113,2.484   c-0.679,0-1.442,0-2.008,0c-1.216,0-2.177,0-2.403-0.027c-0.056,0-0.141,0-0.226,0c-0.424,0.027-0.764,0.447-0.735,0.838   c0.028,0.418,0.452,0.781,0.877,0.754c0.367,0.027,1.271,0.027,2.487,0.027c0.594,0,1.357,0,2.064,0   c0.028,0.865,0.028,1.703-0.028,2.484h-2.036c-1.216,0-2.177-0.029-2.403-0.029c-0.056,0-0.084,0-0.141,0   c-0.425,0-0.792,0.391-0.764,0.811c0,0.418,0.396,0.781,0.82,0.754c0.367,0.027,1.271,0.027,2.487,0.027h1.923   c-0.312,2.568-1.103,4.801-2.742,7.229c-0.368,0.559,0.396,1.424,1.018,1.117c3.449-1.787,5.174-2.68,6.475-2.82h0.028   c1.64-0.139,3.646,1.174,5.824,2.066c1.074,0.447,2.262,0.781,3.477,0.559c1.216-0.225,2.403-1.006,3.422-2.457   c0.226-0.334,0.141-0.865-0.198-1.115c-0.34-0.225-0.905-0.113-1.131,0.223c-0.849,1.229-1.611,1.674-2.375,1.814   c-0.764,0.111-1.611-0.084-2.573-0.475c-1.922-0.811-4.099-2.428-6.615-2.205h-0.028c-1.329,0.168-2.855,0.893-4.778,1.869   c0.905-1.869,1.414-3.768,1.696-5.805c0.283,0,0.509,0,0.792,0c2.94,0,5.739-0.027,5.739-0.027c0.396,0,0.792-0.391,0.792-0.811   c0-0.418-0.396-0.754-0.82-0.754c0,0-2.771,0-5.711,0.029c-0.227,0-0.424,0-0.65,0c0.057-0.811,0.113-1.619,0.085-2.484   c0.198,0,0.367,0,0.565,0c2.94-0.027,5.739-0.027,5.739-0.027c0.396-0.029,0.792-0.42,0.792-0.811c0-0.418-0.396-0.781-0.82-0.781   c0,0-2.771,0.027-5.711,0.027c-0.227,0-0.396,0-0.594,0c-0.028-0.836-0.085-1.674-0.142-2.567c-0.226-3.992,2.121-6.169,4.608-6.42   c2.46-0.224,5.23,1.423,5.938,6.336c0.057,0.418,0.509,0.725,0.933,0.67c0.425-0.057,0.735-0.475,0.679-0.895   C68.108,45.562,64.914,42.995,61.747,42.966L61.747,42.966z M19.678,46.093c1.159,1.423,2.884,2.65,4.948,3.656   c3.901,1.87,9.217,2.959,15.069,2.959c0.848,0,1.696-0.029,2.544-0.084c-0.396,1.535-0.594,3.152-0.594,4.801   c0,1.004,0.085,2.01,0.227,2.957c-0.707,0.057-1.442,0.084-2.177,0.084c-5.655,0-10.744-1.115-14.363-2.846   c-3.618-1.73-5.654-4.047-5.654-6.365v-0.055V46.093L19.678,46.093z M19.678,55.387c1.159,1.424,2.884,2.652,4.948,3.656   c3.901,1.871,9.217,2.988,15.069,2.988c0.848,0,1.64,0,2.459-0.057c0.565,2.373,1.527,4.605,2.855,6.559   c-1.696,0.223-3.449,0.363-5.287,0.363c-5.654,0-10.771-1.088-14.391-2.848c-3.646-1.73-5.654-4.018-5.654-6.336V55.387   L19.678,55.387z"/></g><text x="0" y="115" fill="#000000" font-size="5px" font-weight="bold" font-family="'Helvetica Neue', Helvetica, Arial-Unicode, Arial, Sans-serif">Created by artworkbean</text><text x="0" y="120" fill="#000000" font-size="5px" font-weight="bold" font-family="'Helvetica Neue', Helvetica, Arial-Unicode, Arial, Sans-serif">from the Noun Project</text></svg>